<mxfile host="Electron" modified="2023-10-18T08:56:56.377Z" agent="Mozilla/5.0 (Windows NT 10.0; Win64; x64) AppleWebKit/537.36 (KHTML, like Gecko) draw.io/21.3.7 Chrome/112.0.5615.204 Electron/24.5.0 Safari/537.36" etag="iAB8t_2AfzV56AL8ZzyE" version="21.3.7" type="device">
  <diagram name="第 1 页" id="AqAeRxrlq3r6umwdxBgL">
    <mxGraphModel dx="875" dy="518" grid="1" gridSize="10" guides="1" tooltips="1" connect="1" arrows="1" fold="1" page="1" pageScale="1" pageWidth="827" pageHeight="1169" math="0" shadow="0">
      <root>
        <mxCell id="0" />
        <mxCell id="1" parent="0" />
        <mxCell id="9AK2D2TcUZeFU25b2mAO-3" value="" style="edgeStyle=orthogonalEdgeStyle;rounded=0;orthogonalLoop=1;jettySize=auto;html=1;" edge="1" parent="1" source="9AK2D2TcUZeFU25b2mAO-1" target="9AK2D2TcUZeFU25b2mAO-2">
          <mxGeometry relative="1" as="geometry" />
        </mxCell>
        <mxCell id="9AK2D2TcUZeFU25b2mAO-1" value="CMakelist.txt" style="rounded=0;whiteSpace=wrap;html=1;fontSize=16;" vertex="1" parent="1">
          <mxGeometry x="240" y="160" width="120" height="40" as="geometry" />
        </mxCell>
        <mxCell id="9AK2D2TcUZeFU25b2mAO-5" value="" style="edgeStyle=orthogonalEdgeStyle;rounded=0;orthogonalLoop=1;jettySize=auto;html=1;" edge="1" parent="1" source="9AK2D2TcUZeFU25b2mAO-2" target="9AK2D2TcUZeFU25b2mAO-4">
          <mxGeometry relative="1" as="geometry" />
        </mxCell>
        <mxCell id="9AK2D2TcUZeFU25b2mAO-2" value="Makefile " style="rounded=0;whiteSpace=wrap;html=1;fontSize=16;" vertex="1" parent="1">
          <mxGeometry x="240" y="240" width="120" height="40" as="geometry" />
        </mxCell>
        <mxCell id="9AK2D2TcUZeFU25b2mAO-4" value="gcc命令" style="rounded=0;whiteSpace=wrap;html=1;fontSize=16;" vertex="1" parent="1">
          <mxGeometry x="240" y="320" width="120" height="40" as="geometry" />
        </mxCell>
        <mxCell id="9AK2D2TcUZeFU25b2mAO-12" value="" style="edgeStyle=orthogonalEdgeStyle;rounded=0;orthogonalLoop=1;jettySize=auto;html=1;fontFamily=Helvetica;fontSize=16;fontColor=default;" edge="1" parent="1" source="9AK2D2TcUZeFU25b2mAO-7" target="9AK2D2TcUZeFU25b2mAO-8">
          <mxGeometry relative="1" as="geometry" />
        </mxCell>
        <mxCell id="9AK2D2TcUZeFU25b2mAO-7" value=".c代码文件" style="rounded=0;whiteSpace=wrap;html=1;strokeColor=default;fontFamily=Helvetica;fontSize=16;fontColor=default;fillColor=default;" vertex="1" parent="1">
          <mxGeometry x="400" y="320" width="200" height="40" as="geometry" />
        </mxCell>
        <mxCell id="9AK2D2TcUZeFU25b2mAO-13" value="" style="edgeStyle=orthogonalEdgeStyle;rounded=0;orthogonalLoop=1;jettySize=auto;html=1;fontFamily=Helvetica;fontSize=16;fontColor=default;" edge="1" parent="1" source="9AK2D2TcUZeFU25b2mAO-8" target="9AK2D2TcUZeFU25b2mAO-9">
          <mxGeometry relative="1" as="geometry" />
        </mxCell>
        <mxCell id="9AK2D2TcUZeFU25b2mAO-8" value=".i文件（默认不生成）" style="rounded=0;whiteSpace=wrap;html=1;strokeColor=default;fontFamily=Helvetica;fontSize=15;fontColor=default;fillColor=default;" vertex="1" parent="1">
          <mxGeometry x="400" y="440" width="200" height="40" as="geometry" />
        </mxCell>
        <mxCell id="9AK2D2TcUZeFU25b2mAO-14" value="" style="edgeStyle=orthogonalEdgeStyle;rounded=0;orthogonalLoop=1;jettySize=auto;html=1;fontFamily=Helvetica;fontSize=16;fontColor=default;" edge="1" parent="1" source="9AK2D2TcUZeFU25b2mAO-9" target="9AK2D2TcUZeFU25b2mAO-10">
          <mxGeometry relative="1" as="geometry" />
        </mxCell>
        <mxCell id="9AK2D2TcUZeFU25b2mAO-9" value=".s汇编文件" style="rounded=0;whiteSpace=wrap;html=1;strokeColor=default;fontFamily=Helvetica;fontSize=16;fontColor=default;fillColor=default;" vertex="1" parent="1">
          <mxGeometry x="400" y="520" width="200" height="40" as="geometry" />
        </mxCell>
        <mxCell id="9AK2D2TcUZeFU25b2mAO-15" value="" style="edgeStyle=orthogonalEdgeStyle;rounded=0;orthogonalLoop=1;jettySize=auto;html=1;fontFamily=Helvetica;fontSize=16;fontColor=default;" edge="1" parent="1" source="9AK2D2TcUZeFU25b2mAO-10" target="9AK2D2TcUZeFU25b2mAO-11">
          <mxGeometry relative="1" as="geometry" />
        </mxCell>
        <mxCell id="9AK2D2TcUZeFU25b2mAO-10" value=".o二进制机器码文件" style="rounded=0;whiteSpace=wrap;html=1;strokeColor=default;fontFamily=Helvetica;fontSize=16;fontColor=default;fillColor=default;" vertex="1" parent="1">
          <mxGeometry x="400" y="600" width="200" height="40" as="geometry" />
        </mxCell>
        <mxCell id="9AK2D2TcUZeFU25b2mAO-11" value=".out二进制可执行文件" style="rounded=0;whiteSpace=wrap;html=1;strokeColor=default;fontFamily=Helvetica;fontSize=16;fontColor=default;fillColor=default;" vertex="1" parent="1">
          <mxGeometry x="400" y="680" width="200" height="40" as="geometry" />
        </mxCell>
        <mxCell id="9AK2D2TcUZeFU25b2mAO-16" value="cmake 工具" style="text;html=1;strokeColor=none;fillColor=none;align=left;verticalAlign=middle;whiteSpace=wrap;rounded=0;fontSize=16;fontFamily=Helvetica;fontColor=default;" vertex="1" parent="1">
          <mxGeometry x="320" y="200" width="120" height="40" as="geometry" />
        </mxCell>
        <mxCell id="9AK2D2TcUZeFU25b2mAO-17" value="make 命令" style="text;html=1;strokeColor=none;fillColor=none;align=left;verticalAlign=middle;whiteSpace=wrap;rounded=0;fontSize=16;fontFamily=Helvetica;fontColor=default;" vertex="1" parent="1">
          <mxGeometry x="320" y="280" width="120" height="40" as="geometry" />
        </mxCell>
        <mxCell id="9AK2D2TcUZeFU25b2mAO-18" value="" style="endArrow=classic;html=1;rounded=0;fontFamily=Helvetica;fontSize=16;fontColor=default;" edge="1" parent="1">
          <mxGeometry width="50" height="50" relative="1" as="geometry">
            <mxPoint x="140" y="339.5" as="sourcePoint" />
            <mxPoint x="240" y="339.5" as="targetPoint" />
          </mxGeometry>
        </mxCell>
        <mxCell id="9AK2D2TcUZeFU25b2mAO-19" value="手动输入" style="text;html=1;strokeColor=none;fillColor=none;align=center;verticalAlign=middle;whiteSpace=wrap;rounded=0;fontSize=16;fontFamily=Helvetica;fontColor=default;" vertex="1" parent="1">
          <mxGeometry x="140" y="300" width="100" height="40" as="geometry" />
        </mxCell>
        <mxCell id="9AK2D2TcUZeFU25b2mAO-20" value="预处理&lt;br&gt;（头文件引入、&lt;br&gt;宏展开等）" style="text;html=1;strokeColor=none;fillColor=none;align=left;verticalAlign=middle;whiteSpace=wrap;rounded=0;fontSize=16;fontFamily=Helvetica;fontColor=default;" vertex="1" parent="1">
          <mxGeometry x="510" y="360" width="120" height="80" as="geometry" />
        </mxCell>
        <mxCell id="9AK2D2TcUZeFU25b2mAO-21" value="编译" style="text;html=1;strokeColor=none;fillColor=none;align=left;verticalAlign=middle;whiteSpace=wrap;rounded=0;fontSize=16;fontFamily=Helvetica;fontColor=default;" vertex="1" parent="1">
          <mxGeometry x="510" y="480" width="90" height="40" as="geometry" />
        </mxCell>
        <mxCell id="9AK2D2TcUZeFU25b2mAO-22" value="汇编" style="text;html=1;strokeColor=none;fillColor=none;align=left;verticalAlign=middle;whiteSpace=wrap;rounded=0;fontSize=16;fontFamily=Helvetica;fontColor=default;" vertex="1" parent="1">
          <mxGeometry x="510" y="560" width="90" height="40" as="geometry" />
        </mxCell>
        <mxCell id="9AK2D2TcUZeFU25b2mAO-23" value="链接" style="text;html=1;strokeColor=none;fillColor=none;align=left;verticalAlign=middle;whiteSpace=wrap;rounded=0;fontSize=16;fontFamily=Helvetica;fontColor=default;" vertex="1" parent="1">
          <mxGeometry x="510" y="640" width="90" height="40" as="geometry" />
        </mxCell>
        <mxCell id="9AK2D2TcUZeFU25b2mAO-24" value="-E" style="text;html=1;strokeColor=none;fillColor=none;align=right;verticalAlign=middle;whiteSpace=wrap;rounded=0;fontSize=16;fontFamily=Helvetica;fontColor=default;" vertex="1" parent="1">
          <mxGeometry x="320" y="440" width="60" height="40" as="geometry" />
        </mxCell>
        <mxCell id="9AK2D2TcUZeFU25b2mAO-25" value="-S" style="text;html=1;strokeColor=none;fillColor=none;align=right;verticalAlign=middle;whiteSpace=wrap;rounded=0;fontSize=16;fontFamily=Helvetica;fontColor=default;" vertex="1" parent="1">
          <mxGeometry x="320" y="520" width="60" height="40" as="geometry" />
        </mxCell>
        <mxCell id="9AK2D2TcUZeFU25b2mAO-26" value="-c" style="text;html=1;strokeColor=none;fillColor=none;align=right;verticalAlign=middle;whiteSpace=wrap;rounded=0;fontSize=16;fontFamily=Helvetica;fontColor=default;" vertex="1" parent="1">
          <mxGeometry x="320" y="600" width="60" height="40" as="geometry" />
        </mxCell>
      </root>
    </mxGraphModel>
  </diagram>
</mxfile>
